+ filenameToUse=/home/horvathandras/vatic/vatic/public/videouploads/DJI_0214_30m_ragasok.avi
+ filenameNoDot=DJI_0214_30m_ragasok_Vaskut_20180527_napos_napraforgo_T3
+ FullUploadPath=/home/horvathandras/vatic/vatic/public/videouploads/DJI_0214_30m_ragasok.avi
+ VideoDataDir=/home/horvathandras/vatic/vatic/videos
+ AvailableObjectTypes='PozitívROI NegatívROI Túrás ~Friss ~Régebbi Rágás ~Friss ~Régebbi Törés ~Friss ~Régebbi Taposás ~Friss ~Régebbi EgészségesNövény Egyéb1 Egyéb2 Egyéb3 Egyéb4 Egyéb5'
++ dirname /home/horvathandras/vatic/vatic/vatic_publisher.sh
+ cd /home/horvathandras/vatic/vatic
+ touch /home/horvathandras/vatic/vatic/public/videouploads/DJI_0214_30m_ragasok.avi
+ chmod 744 /home/horvathandras/vatic/vatic/public/videouploads/DJI_0214_30m_ragasok.avi
+ mkdir /home/horvathandras/vatic/vatic/videos/DJI_0214_30m_ragasok_Vaskut_20180527_napos_napraforgo_T3
+ turkic extract /home/horvathandras/vatic/vatic/public/videouploads/DJI_0214_30m_ragasok.avi /home/horvathandras/vatic/vatic/videos/DJI_0214_30m_ragasok_Vaskut_20180527_napos_napraforgo_T3 --no-resize
ffmpeg version 2.8.14-0ubuntu0.16.04.1 Copyright (c) 2000-2018 the FFmpeg developers
  built with gcc 5.4.0 (Ubuntu 5.4.0-6ubuntu1~16.04.9) 20160609
  configuration: --prefix=/usr --extra-version=0ubuntu0.16.04.1 --build-suffix=-ffmpeg --toolchain=hardened --libdir=/usr/lib/x86_64-linux-gnu --incdir=/usr/include/x86_64-linux-gnu --cc=cc --cxx=g++ --enable-gpl --enable-shared --disable-stripping --disable-decoder=libopenjpeg --disable-decoder=libschroedinger --enable-avresample --enable-avisynth --enable-gnutls --enable-ladspa --enable-libass --enable-libbluray --enable-libbs2b --enable-libcaca --enable-libcdio --enable-libflite --enable-libfontconfig --enable-libfreetype --enable-libfribidi --enable-libgme --enable-libgsm --enable-libmodplug --enable-libmp3lame --enable-libopenjpeg --enable-libopus --enable-libpulse --enable-librtmp --enable-libschroedinger --enable-libshine --enable-libsnappy --enable-libsoxr --enable-libspeex --enable-libssh --enable-libtheora --enable-libtwolame --enable-libvorbis --enable-libvpx --enable-libwavpack --enable-libwebp --enable-libx265 --enable-libxvid --enable-libzvbi --enable-openal --enable-opengl --enable-x11grab --enable-libdc1394 --enable-libiec61883 --enable-libzmq --enable-frei0r --enable-libx264 --enable-libopencv
  libavutil      54. 31.100 / 54. 31.100
  libavcodec     56. 60.100 / 56. 60.100
  libavformat    56. 40.101 / 56. 40.101
  libavdevice    56.  4.100 / 56.  4.100
  libavfilter     5. 40.101 /  5. 40.101
  libavresample   2.  1.  0 /  2.  1.  0
  libswscale      3.  1.101 /  3.  1.101
  libswresample   1.  2.101 /  1.  2.101
  libpostproc    53.  3.100 / 53.  3.100
Input #0, mov,mp4,m4a,3gp,3g2,mj2, from '/home/horvathandras/vatic/vatic/public/videouploads/DJI_0214_30m_ragasok.avi':
  Metadata:
    major_brand     : qt  
    minor_version   : 537986816
    compatible_brands: qt  
    creation_time   : 2018-05-27 10:53:10
    location        : +46.073597+18.994524+30.700
    location-{    : +46.073597+18.994524+30.700
    comment         : DE=None, Mode=P, DSW=0001
  Duration: 00:00:22.82, start: 0.000000, bitrate: 100783 kb/s
    Stream #0:0(eng): Video: h264 (High) (avc1 / 0x31637661), yuv420p(tv, bt709), 4096x2160 [SAR 1:1 DAR 256:135], 100604 kb/s, 59.94 fps, 59.94 tbr, 60k tbn, 119.88 tbc (default)
    Metadata:
      creation_time   : 2018-05-27 10:53:10
      handler_name    : DJI.AVC
      encoder         : AVC encoder
    Stream #0:1(eng): Data: none (priv / 0x76697270), 165 kb/s
    Metadata:
      creation_time   : 2018-05-27 10:53:10
      handler_name    : DJI.Meta
Please use -b:a or -b:v, -b is ambiguous
[swscaler @ 0x1282c00] deprecated pixel format used, make sure you did set range correctly
Output #0, image2, to '/tmp/pyvision-ffmpeg-359241659/%d.jpg':
  Metadata:
    major_brand     : qt  
    minor_version   : 537986816
    compatible_brands: qt  
    comment         : DE=None, Mode=P, DSW=0001
    location        : +46.073597+18.994524+30.700
    location-{    : +46.073597+18.994524+30.700
    encoder         : Lavf56.40.101
    Stream #0:0(eng): Video: mjpeg, yuvj420p(pc), 4096x2160 [SAR 1:1 DAR 256:135], q=2-31, 10000 kb/s, 59.94 fps, 59.94 tbn, 59.94 tbc (default)
    Metadata:
      creation_time   : 2018-05-27 10:53:10
      handler_name    : DJI.AVC
      encoder         : Lavc56.60.100 mjpeg
Stream mapping:
  Stream #0:0 -> #0:0 (h264 (native) -> mjpeg (native))
Press [q] to stop, [?] for help
frame=    1 fps=0.0 q=18.2 size=N/A time=00:00:00.01 bitrate=N/A    frame=    5 fps=4.7 q=24.8 size=N/A time=00:00:00.08 bitrate=N/A    frame=   10 fps=6.1 q=24.8 size=N/A time=00:00:00.16 bitrate=N/A    frame=   15 fps=6.8 q=24.8 size=N/A time=00:00:00.25 bitrate=N/A    frame=   20 fps=7.2 q=24.8 size=N/A time=00:00:00.33 bitrate=N/A    frame=   25 fps=7.5 q=24.8 size=N/A time=00:00:00.41 bitrate=N/A    frame=   30 fps=7.7 q=24.8 size=N/A time=00:00:00.50 bitrate=N/A    frame=   35 fps=7.8 q=24.8 size=N/A time=00:00:00.58 bitrate=N/A    frame=   40 fps=8.0 q=24.8 size=N/A time=00:00:00.66 bitrate=N/A    frame=   45 fps=8.0 q=24.8 size=N/A time=00:00:00.75 bitrate=N/A    frame=   50 fps=8.1 q=24.8 size=N/A time=00:00:00.83 bitrate=N/A    frame=   55 fps=8.2 q=24.8 size=N/A time=00:00:00.91 bitrate=N/A    frame=   60 fps=8.2 q=24.8 size=N/A time=00:00:01.00 bitrate=N/A    frame=   65 fps=8.3 q=24.8 size=N/A time=00:00:01.08 bitrate=N/A    frame=   70 fps=8.3 q=24.8 size=N/A time=00:00:01.16 bitrate=N/A    frame=   75 fps=8.4 q=24.8 size=N/A time=00:00:01.25 bitrate=N/A    frame=   80 fps=8.4 q=24.8 size=N/A time=00:00:01.33 bitrate=N/A    frame=   85 fps=8.4 q=24.8 size=N/A time=00:00:01.41 bitrate=N/A    frame=   90 fps=8.4 q=24.8 size=N/A time=00:00:01.50 bitrate=N/A    frame=   95 fps=8.5 q=24.8 size=N/A time=00:00:01.58 bitrate=N/A    frame=  100 fps=8.5 q=24.8 size=N/A time=00:00:01.66 bitrate=N/A    frame=  105 fps=8.5 q=24.8 size=N/A time=00:00:01.75 bitrate=N/A    frame=  110 fps=8.5 q=24.8 size=N/A time=00:00:01.83 bitrate=N/A    frame=  115 fps=8.5 q=24.8 size=N/A time=00:00:01.91 bitrate=N/A    frame=  120 fps=8.5 q=24.8 size=N/A time=00:00:02.00 bitrate=N/A    frame=  125 fps=8.6 q=24.8 size=N/A time=00:00:02.08 bitrate=N/A    frame=  130 fps=8.6 q=24.8 size=N/A time=00:00:02.16 bitrate=N/A    frame=  135 fps=8.6 q=24.8 size=N/A time=00:00:02.25 bitrate=N/A    frame=  140 fps=8.6 q=24.8 size=N/A time=00:00:02.33 bitrate=N/A    frame=  145 fps=8.6 q=24.8 size=N/A time=00:00:02.41 bitrate=N/A    frame=  150 fps=8.6 q=24.8 size=N/A time=00:00:02.50 bitrate=N/A    frame=  155 fps=8.6 q=24.8 size=N/A time=00:00:02.58 bitrate=N/A    frame=  160 fps=8.6 q=24.8 size=N/A time=00:00:02.66 bitrate=N/A    frame=  165 fps=8.6 q=24.8 size=N/A time=00:00:02.75 bitrate=N/A    frame=  170 fps=8.6 q=24.8 size=N/A time=00:00:02.83 bitrate=N/A    frame=  175 fps=8.6 q=24.8 size=N/A time=00:00:02.91 bitrate=N/A    frame=  180 fps=8.6 q=24.8 size=N/A time=00:00:03.00 bitrate=N/A    frame=  185 fps=8.7 q=24.8 size=N/A time=00:00:03.08 bitrate=N/A    frame=  190 fps=8.7 q=24.8 size=N/A time=00:00:03.16 bitrate=N/A    frame=  195 fps=8.7 q=24.8 size=N/A time=00:00:03.25 bitrate=N/A    frame=  200 fps=8.7 q=24.8 size=N/A time=00:00:03.33 bitrate=N/A    frame=  205 fps=8.7 q=24.8 size=N/A time=00:00:03.42 bitrate=N/A    frame=  210 fps=8.7 q=24.8 size=N/A time=00:00:03.50 bitrate=N/A    frame=  215 fps=8.7 q=24.8 size=N/A time=00:00:03.58 bitrate=N/A    frame=  220 fps=8.7 q=24.8 size=N/A time=00:00:03.67 bitrate=N/A    frame=  225 fps=8.7 q=24.8 size=N/A time=00:00:03.75 bitrate=N/A    frame=  230 fps=8.7 q=24.8 size=N/A time=00:00:03.83 bitrate=N/A    frame=  235 fps=8.7 q=24.8 size=N/A time=00:00:03.92 bitrate=N/A    frame=  240 fps=8.7 q=24.8 size=N/A time=00:00:04.00 bitrate=N/A    frame=  245 fps=8.7 q=24.8 size=N/A time=00:00:04.08 bitrate=N/A    frame=  250 fps=8.7 q=24.8 size=N/A time=00:00:04.17 bitrate=N/A    frame=  255 fps=8.7 q=24.8 size=N/A time=00:00:04.25 bitrate=N/A    frame=  260 fps=8.7 q=24.8 size=N/A time=00:00:04.33 bitrate=N/A    frame=  265 fps=8.7 q=24.8 size=N/A time=00:00:04.42 bitrate=N/A    frame=  270 fps=8.7 q=24.8 size=N/A time=00:00:04.50 bitrate=N/A    frame=  275 fps=8.7 q=24.8 size=N/A time=00:00:04.58 bitrate=N/A    frame=  280 fps=8.7 q=24.8 size=N/A time=00:00:04.67 bitrate=N/A    frame=  285 fps=8.7 q=24.8 size=N/A time=00:00:04.75 bitrate=N/A    frame=  290 fps=8.7 q=24.8 size=N/A time=00:00:04.83 bitrate=N/A    frame=  295 fps=8.7 q=24.8 size=N/A time=00:00:04.92 bitrate=N/A    frame=  300 fps=8.7 q=24.8 size=N/A time=00:00:05.00 bitrate=N/A    frame=  305 fps=8.7 q=24.8 size=N/A time=00:00:05.08 bitrate=N/A    frame=  310 fps=8.8 q=24.8 size=N/A time=00:00:05.17 bitrate=N/A    frame=  315 fps=8.8 q=24.8 size=N/A time=00:00:05.25 bitrate=N/A    frame=  320 fps=8.8 q=24.8 size=N/A time=00:00:05.33 bitrate=N/A    frame=  325 fps=8.8 q=24.8 size=N/A time=00:00:05.42 bitrate=N/A    frame=  330 fps=8.8 q=24.8 size=N/A time=00:00:05.50 bitrate=N/A    frame=  335 fps=8.8 q=24.8 size=N/A time=00:00:05.58 bitrate=N/A    frame=  340 fps=8.8 q=24.8 size=N/A time=00:00:05.67 bitrate=N/A    frame=  345 fps=8.8 q=24.8 size=N/A time=00:00:05.75 bitrate=N/A    frame=  350 fps=8.8 q=24.8 size=N/A time=00:00:05.83 bitrate=N/A    frame=  355 fps=8.8 q=24.8 size=N/A time=00:00:05.92 bitrate=N/A    frame=  360 fps=8.8 q=24.8 size=N/A time=00:00:06.00 bitrate=N/A    frame=  365 fps=8.8 q=24.8 size=N/A time=00:00:06.08 bitrate=N/A    frame=  370 fps=8.8 q=24.8 size=N/A time=00:00:06.17 bitrate=N/A    frame=  375 fps=8.8 q=24.8 size=N/A time=00:00:06.25 bitrate=N/A    frame=  380 fps=8.8 q=24.8 size=N/A time=00:00:06.33 bitrate=N/A    frame=  385 fps=8.8 q=24.8 size=N/A time=00:00:06.42 bitrate=N/A    frame=  390 fps=8.8 q=24.8 size=N/A time=00:00:06.50 bitrate=N/A    frame=  395 fps=8.8 q=24.8 size=N/A time=00:00:06.58 bitrate=N/A    frame=  400 fps=8.8 q=24.8 size=N/A time=00:00:06.67 bitrate=N/A    frame=  405 fps=8.8 q=24.8 size=N/A time=00:00:06.75 bitrate=N/A    frame=  410 fps=8.8 q=24.8 size=N/A time=00:00:06.84 bitrate=N/A    frame=  415 fps=8.8 q=24.8 size=N/A time=00:00:06.92 bitrate=N/A    frame=  420 fps=8.8 q=24.8 size=N/A time=00:00:07.00 bitrate=N/A    frame=  425 fps=8.8 q=24.8 size=N/A time=00:00:07.09 bitrate=N/A    frame=  430 fps=8.8 q=24.8 size=N/A time=00:00:07.17 bitrate=N/A    frame=  435 fps=8.8 q=24.8 size=N/A time=00:00:07.25 bitrate=N/A    frame=  440 fps=8.8 q=24.8 size=N/A time=00:00:07.34 bitrate=N/A    frame=  445 fps=8.8 q=24.8 size=N/A time=00:00:07.42 bitrate=N/A    frame=  450 fps=8.8 q=24.8 size=N/A time=00:00:07.50 bitrate=N/A    frame=  455 fps=8.8 q=24.8 size=N/A time=00:00:07.59 bitrate=N/A    frame=  460 fps=8.8 q=24.8 size=N/A time=00:00:07.67 bitrate=N/A    frame=  465 fps=8.8 q=24.8 size=N/A time=00:00:07.75 bitrate=N/A    frame=  470 fps=8.8 q=24.8 size=N/A time=00:00:07.84 bitrate=N/A    frame=  475 fps=8.8 q=24.8 size=N/A time=00:00:07.92 bitrate=N/A    frame=  480 fps=8.8 q=24.8 size=N/A time=00:00:08.00 bitrate=N/A    frame=  485 fps=8.8 q=24.8 size=N/A time=00:00:08.09 bitrate=N/A    frame=  490 fps=8.8 q=24.8 size=N/A time=00:00:08.17 bitrate=N/A    frame=  495 fps=8.8 q=24.8 size=N/A time=00:00:08.25 bitrate=N/A    frame=  500 fps=8.8 q=24.8 size=N/A time=00:00:08.34 bitrate=N/A    frame=  505 fps=8.8 q=24.8 size=N/A time=00:00:08.42 bitrate=N/A    frame=  510 fps=8.8 q=24.8 size=N/A time=00:00:08.50 bitrate=N/A    frame=  515 fps=8.8 q=24.8 size=N/A time=00:00:08.59 bitrate=N/A    frame=  520 fps=8.8 q=24.8 size=N/A time=00:00:08.67 bitrate=N/A    frame=  525 fps=8.8 q=24.8 size=N/A time=00:00:08.75 bitrate=N/A    frame=  530 fps=8.8 q=24.8 size=N/A time=00:00:08.84 bitrate=N/A    frame=  535 fps=8.8 q=24.8 size=N/A time=00:00:08.92 bitrate=N/A    frame=  540 fps=8.8 q=24.8 size=N/A time=00:00:09.00 bitrate=N/A    frame=  545 fps=8.8 q=24.8 size=N/A time=00:00:09.09 bitrate=N/A    frame=  550 fps=8.8 q=24.8 size=N/A time=00:00:09.17 bitrate=N/A    frame=  555 fps=8.8 q=24.8 size=N/A time=00:00:09.25 bitrate=N/A    frame=  560 fps=8.8 q=24.8 size=N/A time=00:00:09.34 bitrate=N/A    frame=  565 fps=8.8 q=24.8 size=N/A time=00:00:09.42 bitrate=N/A    frame=  570 fps=8.8 q=24.8 size=N/A time=00:00:09.50 bitrate=N/A    frame=  575 fps=8.8 q=24.8 size=N/A time=00:00:09.59 bitrate=N/A    frame=  580 fps=8.8 q=24.8 size=N/A time=00:00:09.67 bitrate=N/A    frame=  585 fps=8.8 q=24.8 size=N/A time=00:00:09.75 bitrate=N/A    frame=  590 fps=8.8 q=24.8 size=N/A time=00:00:09.84 bitrate=N/A    frame=  595 fps=8.8 q=24.8 size=N/A time=00:00:09.92 bitrate=N/A    frame=  600 fps=8.9 q=24.8 size=N/A time=00:00:10.01 bitrate=N/A    frame=  605 fps=8.9 q=24.8 size=N/A time=00:00:10.09 bitrate=N/A    frame=  610 fps=8.9 q=24.8 size=N/A time=00:00:10.17 bitrate=N/A    frame=  615 fps=8.9 q=24.8 size=N/A time=00:00:10.26 bitrate=N/A    frame=  620 fps=8.9 q=24.8 size=N/A time=00:00:10.34 bitrate=N/A    frame=  625 fps=8.9 q=24.8 size=N/A time=00:00:10.42 bitrate=N/A    frame=  630 fps=8.9 q=24.8 size=N/A time=00:00:10.51 bitrate=N/A    frame=  635 fps=8.9 q=24.8 size=N/A time=00:00:10.59 bitrate=N/A    frame=  640 fps=8.9 q=24.8 size=N/A time=00:00:10.67 bitrate=N/A    frame=  645 fps=8.9 q=24.8 size=N/A time=00:00:10.76 bitrate=N/A    frame=  650 fps=8.9 q=24.8 size=N/A time=00:00:10.84 bitrate=N/A    frame=  655 fps=8.9 q=24.8 size=N/A time=00:00:10.92 bitrate=N/A    frame=  660 fps=8.9 q=24.8 size=N/A time=00:00:11.01 bitrate=N/A    frame=  665 fps=8.9 q=24.8 size=N/A time=00:00:11.09 bitrate=N/A    frame=  670 fps=8.9 q=24.8 size=N/A time=00:00:11.17 bitrate=N/A    frame=  675 fps=8.9 q=24.8 size=N/A time=00:00:11.26 bitrate=N/A    frame=  680 fps=8.9 q=24.8 size=N/A time=00:00:11.34 bitrate=N/A    frame=  685 fps=8.9 q=24.8 size=N/A time=00:00:11.42 bitrate=N/A    frame=  690 fps=8.9 q=24.8 size=N/A time=00:00:11.51 bitrate=N/A    frame=  695 fps=8.9 q=24.8 size=N/A time=00:00:11.59 bitrate=N/A    frame=  700 fps=8.9 q=24.8 size=N/A time=00:00:11.67 bitrate=N/A    frame=  705 fps=8.9 q=24.8 size=N/A time=00:00:11.76 bitrate=N/A    frame=  710 fps=8.9 q=24.8 size=N/A time=00:00:11.84 bitrate=N/A    frame=  715 fps=8.9 q=24.8 size=N/A time=00:00:11.92 bitrate=N/A    frame=  720 fps=8.9 q=24.8 size=N/A time=00:00:12.01 bitrate=N/A    frame=  725 fps=8.9 q=24.8 size=N/A time=00:00:12.09 bitrate=N/A    frame=  730 fps=8.9 q=24.8 size=N/A time=00:00:12.17 bitrate=N/A    frame=  735 fps=8.9 q=24.8 size=N/A time=00:00:12.26 bitrate=N/A    frame=  740 fps=8.9 q=24.8 size=N/A time=00:00:12.34 bitrate=N/A    frame=  745 fps=8.9 q=24.8 size=N/A time=00:00:12.42 bitrate=N/A    frame=  750 fps=8.9 q=24.8 size=N/A time=00:00:12.51 bitrate=N/A    frame=  755 fps=8.9 q=24.8 size=N/A time=00:00:12.59 bitrate=N/A    frame=  760 fps=8.9 q=24.8 size=N/A time=00:00:12.67 bitrate=N/A    frame=  765 fps=8.9 q=24.8 size=N/A time=00:00:12.76 bitrate=N/A    frame=  770 fps=8.9 q=24.8 size=N/A time=00:00:12.84 bitrate=N/A    frame=  775 fps=8.9 q=24.8 size=N/A time=00:00:12.92 bitrate=N/A    frame=  780 fps=8.9 q=24.8 size=N/A time=00:00:13.01 bitrate=N/A    frame=  785 fps=8.9 q=24.8 size=N/A time=00:00:13.09 bitrate=N/A    frame=  790 fps=8.9 q=24.8 size=N/A time=00:00:13.17 bitrate=N/A    frame=  795 fps=8.9 q=24.8 size=N/A time=00:00:13.26 bitrate=N/A    frame=  800 fps=8.9 q=24.8 size=N/A time=00:00:13.34 bitrate=N/A    frame=  805 fps=8.9 q=24.8 size=N/A time=00:00:13.43 bitrate=N/A    frame=  810 fps=8.9 q=24.8 size=N/A time=00:00:13.51 bitrate=N/A    frame=  815 fps=8.9 q=24.8 size=N/A time=00:00:13.59 bitrate=N/A    frame=  820 fps=8.9 q=24.8 size=N/A time=00:00:13.68 bitrate=N/A    frame=  825 fps=8.9 q=24.8 size=N/A time=00:00:13.76 bitrate=N/A    frame=  830 fps=8.9 q=24.8 size=N/A time=00:00:13.84 bitrate=N/A    frame=  835 fps=8.9 q=24.8 size=N/A time=00:00:13.93 bitrate=N/A    frame=  840 fps=8.9 q=24.8 size=N/A time=00:00:14.01 bitrate=N/A    frame=  845 fps=8.9 q=24.8 size=N/A time=00:00:14.09 bitrate=N/A    frame=  850 fps=8.9 q=24.8 size=N/A time=00:00:14.18 bitrate=N/A    frame=  855 fps=8.9 q=24.8 size=N/A time=00:00:14.26 bitrate=N/A    frame=  860 fps=8.9 q=24.8 size=N/A time=00:00:14.34 bitrate=N/A    frame=  865 fps=8.9 q=24.8 size=N/A time=00:00:14.43 bitrate=N/A    frame=  870 fps=8.9 q=24.8 size=N/A time=00:00:14.51 bitrate=N/A    frame=  875 fps=8.9 q=24.8 size=N/A time=00:00:14.59 bitrate=N/A    frame=  880 fps=8.9 q=24.8 size=N/A time=00:00:14.68 bitrate=N/A    frame=  885 fps=8.9 q=24.8 size=N/A time=00:00:14.76 bitrate=N/A    frame=  890 fps=8.9 q=24.8 size=N/A time=00:00:14.84 bitrate=N/A    frame=  895 fps=8.9 q=24.8 size=N/A time=00:00:14.93 bitrate=N/A    frame=  900 fps=8.9 q=24.8 size=N/A time=00:00:15.01 bitrate=N/A    frame=  905 fps=8.9 q=24.8 size=N/A time=00:00:15.09 bitrate=N/A    frame=  910 fps=8.9 q=24.8 size=N/A time=00:00:15.18 bitrate=N/A    frame=  915 fps=8.9 q=24.8 size=N/A time=00:00:15.26 bitrate=N/A    frame=  920 fps=8.9 q=24.8 size=N/A time=00:00:15.34 bitrate=N/A    frame=  925 fps=8.9 q=24.8 size=N/A time=00:00:15.43 bitrate=N/A    frame=  930 fps=8.9 q=24.8 size=N/A time=00:00:15.51 bitrate=N/A    frame=  935 fps=8.9 q=24.8 size=N/A time=00:00:15.59 bitrate=N/A    frame=  940 fps=8.9 q=24.8 size=N/A time=00:00:15.68 bitrate=N/A    frame=  945 fps=8.9 q=24.8 size=N/A time=00:00:15.76 bitrate=N/A    frame=  950 fps=8.9 q=24.8 size=N/A time=00:00:15.84 bitrate=N/A    frame=  955 fps=8.9 q=24.8 size=N/A time=00:00:15.93 bitrate=N/A    frame=  960 fps=8.9 q=24.8 size=N/A time=00:00:16.01 bitrate=N/A    frame=  965 fps=8.9 q=24.8 size=N/A time=00:00:16.09 bitrate=N/A    frame=  970 fps=8.9 q=24.8 size=N/A time=00:00:16.18 bitrate=N/A    frame=  975 fps=8.9 q=24.8 size=N/A time=00:00:16.26 bitrate=N/A    frame=  980 fps=8.9 q=24.8 size=N/A time=00:00:16.34 bitrate=N/A    frame=  985 fps=8.9 q=24.8 size=N/A time=00:00:16.43 bitrate=N/A    frame=  990 fps=8.9 q=24.8 size=N/A time=00:00:16.51 bitrate=N/A    frame=  995 fps=8.9 q=24.8 size=N/A time=00:00:16.59 bitrate=N/A    frame= 1000 fps=8.9 q=24.8 size=N/A time=00:00:16.68 bitrate=N/A    frame= 1005 fps=8.9 q=24.8 size=N/A time=00:00:16.76 bitrate=N/A    frame= 1010 fps=8.9 q=24.8 size=N/A time=00:00:16.85 bitrate=N/A    frame= 1015 fps=8.9 q=24.8 size=N/A time=00:00:16.93 bitrate=N/A    frame= 1020 fps=8.9 q=24.8 size=N/A time=00:00:17.01 bitrate=N/A    frame= 1025 fps=8.9 q=24.8 size=N/A time=00:00:17.10 bitrate=N/A    frame= 1030 fps=8.9 q=24.8 size=N/A time=00:00:17.18 bitrate=N/A    frame= 1035 fps=8.9 q=24.8 size=N/A time=00:00:17.26 bitrate=N/A    frame= 1040 fps=8.9 q=24.8 size=N/A time=00:00:17.35 bitrate=N/A    frame= 1045 fps=8.9 q=24.8 size=N/A time=00:00:17.43 bitrate=N/A    frame= 1050 fps=8.9 q=24.8 size=N/A time=00:00:17.51 bitrate=N/A    frame= 1055 fps=8.9 q=24.8 size=N/A time=00:00:17.60 bitrate=N/A    frame= 1060 fps=8.9 q=24.8 size=N/A time=00:00:17.68 bitrate=N/A    frame= 1065 fps=8.9 q=24.8 size=N/A time=00:00:17.76 bitrate=N/A    frame= 1070 fps=8.9 q=24.8 size=N/A time=00:00:17.85 bitrate=N/A    frame= 1075 fps=8.9 q=24.8 size=N/A time=00:00:17.93 bitrate=N/A    frame= 1080 fps=8.9 q=24.8 size=N/A time=00:00:18.01 bitrate=N/A    frame= 1085 fps=8.9 q=24.8 size=N/A time=00:00:18.10 bitrate=N/A    frame= 1090 fps=8.9 q=24.8 size=N/A time=00:00:18.18 bitrate=N/A    frame= 1095 fps=8.9 q=24.8 size=N/A time=00:00:18.26 bitrate=N/A    frame= 1100 fps=8.9 q=24.8 size=N/A time=00:00:18.35 bitrate=N/A    frame= 1105 fps=8.9 q=24.8 size=N/A time=00:00:18.43 bitrate=N/A    frame= 1110 fps=8.9 q=24.8 size=N/A time=00:00:18.51 bitrate=N/A    frame= 1115 fps=8.9 q=24.8 size=N/A time=00:00:18.60 bitrate=N/A    frame= 1120 fps=8.9 q=24.8 size=N/A time=00:00:18.68 bitrate=N/A    frame= 1125 fps=8.9 q=24.8 size=N/A time=00:00:18.76 bitrate=N/A    frame= 1130 fps=8.9 q=24.8 size=N/A time=00:00:18.85 bitrate=N/A    frame= 1135 fps=8.9 q=24.8 size=N/A time=00:00:18.93 bitrate=N/A    frame= 1140 fps=8.9 q=24.8 size=N/A time=00:00:19.01 bitrate=N/A    frame= 1145 fps=8.9 q=24.8 size=N/A time=00:00:19.10 bitrate=N/A    frame= 1150 fps=8.9 q=24.8 size=N/A time=00:00:19.18 bitrate=N/A    frame= 1155 fps=8.9 q=24.8 size=N/A time=00:00:19.26 bitrate=N/A    frame= 1160 fps=8.9 q=24.8 size=N/A time=00:00:19.35 bitrate=N/A    frame= 1165 fps=8.9 q=24.8 size=N/A time=00:00:19.43 bitrate=N/A    frame= 1170 fps=8.9 q=24.8 size=N/A time=00:00:19.51 bitrate=N/A    frame= 1175 fps=8.9 q=24.8 size=N/A time=00:00:19.60 bitrate=N/A    frame= 1180 fps=8.9 q=24.8 size=N/A time=00:00:19.68 bitrate=N/A    frame= 1185 fps=8.9 q=24.8 size=N/A time=00:00:19.76 bitrate=N/A    frame= 1190 fps=8.9 q=24.8 size=N/A time=00:00:19.85 bitrate=N/A    frame= 1195 fps=8.9 q=24.8 size=N/A time=00:00:19.93 bitrate=N/A    frame= 1200 fps=8.9 q=24.8 size=N/A time=00:00:20.02 bitrate=N/A    frame= 1205 fps=8.9 q=24.8 size=N/A time=00:00:20.10 bitrate=N/A    frame= 1210 fps=8.9 q=24.8 size=N/A time=00:00:20.18 bitrate=N/A    frame= 1215 fps=8.9 q=24.8 size=N/A time=00:00:20.27 bitrate=N/A    frame= 1220 fps=8.9 q=24.8 size=N/A time=00:00:20.35 bitrate=N/A    frame= 1225 fps=8.9 q=24.8 size=N/A time=00:00:20.43 bitrate=N/A    frame= 1230 fps=8.9 q=24.8 size=N/A time=00:00:20.52 bitrate=N/A    frame= 1235 fps=8.9 q=24.8 size=N/A time=00:00:20.60 bitrate=N/A    frame= 1240 fps=8.9 q=24.8 size=N/A time=00:00:20.68 bitrate=N/A    frame= 1245 fps=8.9 q=24.8 size=N/A time=00:00:20.77 bitrate=N/A    frame= 1250 fps=8.9 q=24.8 size=N/A time=00:00:20.85 bitrate=N/A    frame= 1255 fps=8.9 q=24.8 size=N/A time=00:00:20.93 bitrate=N/A    frame= 1260 fps=8.9 q=24.8 size=N/A time=00:00:21.02 bitrate=N/A    frame= 1265 fps=8.9 q=24.8 size=N/A time=00:00:21.10 bitrate=N/A    frame= 1270 fps=8.9 q=24.8 size=N/A time=00:00:21.18 bitrate=N/A    frame= 1275 fps=8.9 q=24.8 size=N/A time=00:00:21.27 bitrate=N/A    frame= 1280 fps=8.9 q=24.8 size=N/A time=00:00:21.35 bitrate=N/A    frame= 1285 fps=9.0 q=24.8 size=N/A time=00:00:21.43 bitrate=N/A    frame= 1290 fps=9.0 q=24.8 size=N/A time=00:00:21.52 bitrate=N/A    frame= 1295 fps=9.0 q=24.8 size=N/A time=00:00:21.60 bitrate=N/A    frame= 1300 fps=9.0 q=24.8 size=N/A time=00:00:21.68 bitrate=N/A    frame= 1305 fps=9.0 q=24.8 size=N/A time=00:00:21.77 bitrate=N/A    frame= 1310 fps=9.0 q=24.8 size=N/A time=00:00:21.85 bitrate=N/A    frame= 1315 fps=9.0 q=24.8 size=N/A time=00:00:21.93 bitrate=N/A    frame= 1320 fps=9.0 q=24.8 size=N/A time=00:00:22.02 bitrate=N/A    frame= 1325 fps=9.0 q=24.8 size=N/A time=00:00:22.10 bitrate=N/A    frame= 1330 fps=9.0 q=24.8 size=N/A time=00:00:22.18 bitrate=N/A    frame= 1335 fps=9.0 q=24.8 size=N/A time=00:00:22.27 bitrate=N/A    frame= 1340 fps=9.0 q=24.8 size=N/A time=00:00:22.35 bitrate=N/A    frame= 1345 fps=9.0 q=24.8 size=N/A time=00:00:22.43 bitrate=N/A    frame= 1350 fps=9.0 q=24.8 size=N/A time=00:00:22.52 bitrate=N/A    frame= 1355 fps=9.0 q=24.8 size=N/A time=00:00:22.60 bitrate=N/A    frame= 1360 fps=9.0 q=24.8 size=N/A time=00:00:22.68 bitrate=N/A    frame= 1365 fps=9.0 q=24.8 size=N/A time=00:00:22.77 bitrate=N/A    frame= 1368 fps=9.0 q=24.8 Lsize=N/A time=00:00:22.82 bitrate=N/A    
video:1026769kB audio:0kB subtitle:0kB other streams:0kB global headers:0kB muxing overhead: unknown
+ turkic load DJI_0214_30m_ragasok_Vaskut_20180527_napos_napraforgo_T3 /home/horvathandras/vatic/vatic/videos/DJI_0214_30m_ragasok_Vaskut_20180527_napos_napraforgo_T3 $'Pozit\303\255vROI' $'Negat\303\255vROI' $'T\303\272r\303\241s' '~Friss' '~Régebbi' $'R\303\241g\303\241s' '~Friss' '~Régebbi' $'T\303\266r\303\251s' '~Friss' '~Régebbi' $'Tapos\303\241s' '~Friss' '~Régebbi' $'Eg\303\251szs\303\251gesN\303\266v\303\251ny' $'Egy\303\251b1' $'Egy\303\251b2' $'Egy\303\251b3' $'Egy\303\251b4' $'Egy\303\251b5' --offline --title '$filenameNoDot Video' --length 1000 --description 'vatic annotation'
+ turkic publish --offline
+ mkdir /home/horvathandras/vatic/vatic/public/videothumbnails/DJI_0214_30m_ragasok_Vaskut_20180527_napos_napraforgo_T3
+ cp /home/horvathandras/vatic/vatic/videos/DJI_0214_30m_ragasok_Vaskut_20180527_napos_napraforgo_T3/0/0/31.jpg /home/horvathandras/vatic/vatic/public/videothumbnails/DJI_0214_30m_ragasok_Vaskut_20180527_napos_napraforgo_T3/thumb.jpg
